<svg width="400" height="275" viewBox="0 0 400 275" fill="none" xmlns="http://www.w3.org/2000/svg">
<mask id="path-1-outside-1_2001_83" maskUnits="userSpaceOnUse" x="10" y="12" width="87" height="119" fill="black">
<rect fill="white" x="10" y="12" width="87" height="119"/>
<path d="M11.0949 13.0005H95.5017V40.5789H42.0162V60.8031H90.6546V88.3816H42.0162V130H11.0949V13.0005Z"/>
</mask>
<path d="M11.0949 13.0005H95.5017V40.5789H42.0162V60.8031H90.6546V88.3816H42.0162V130H11.0949V13.0005Z" fill="white"/>
<path d="M11.0949 13.0005V12.0005H10.0949V13.0005H11.0949ZM95.5017 13.0005H96.5017V12.0005H95.5017V13.0005ZM95.5017 40.5789V41.5789H96.5017V40.5789H95.5017ZM42.0162 40.5789V39.5789H41.0162V40.5789H42.0162ZM42.0162 60.8031H41.0162V61.8031H42.0162V60.8031ZM90.6546 60.8031H91.6546V59.8031H90.6546V60.8031ZM90.6546 88.3816V89.3816H91.6546V88.3816H90.6546ZM42.0162 88.3816V87.3816H41.0162V88.3816H42.0162ZM42.0162 130V131H43.0162V130H42.0162ZM11.0949 130H10.0949V131H11.0949V130ZM11.0949 14.0005H95.5017V12.0005H11.0949V14.0005ZM94.5017 13.0005V40.5789H96.5017V13.0005H94.5017ZM95.5017 39.5789H42.0162V41.5789H95.5017V39.5789ZM41.0162 40.5789V60.8031H43.0162V40.5789H41.0162ZM42.0162 61.8031H90.6546V59.8031H42.0162V61.8031ZM89.6546 60.8031V88.3816H91.6546V60.8031H89.6546ZM90.6546 87.3816H42.0162V89.3816H90.6546V87.3816ZM41.0162 88.3816V130H43.0162V88.3816H41.0162ZM42.0162 129H11.0949V131H42.0162V129ZM12.0949 130V13.0005H10.0949V130H12.0949Z" fill="black" mask="url(#path-1-outside-1_2001_83)"/>
<mask id="path-3-outside-2_2001_83" maskUnits="userSpaceOnUse" x="100.143" y="46" width="94" height="88" fill="black">
<rect fill="white" x="100.143" y="46" width="94" height="88"/>
<path d="M114.905 121.476C106.325 114.01 102.035 103.48 102.035 89.8859C102.035 76.2916 106.325 65.8174 114.905 58.4631C123.596 50.9975 134.349 47.2646 147.163 47.2646C159.978 47.2646 170.675 50.9975 179.255 58.4631C187.946 65.8174 192.292 76.2916 192.292 89.8859C192.292 103.48 187.946 114.01 179.255 121.476C170.675 128.83 159.978 132.507 147.163 132.507C134.349 132.507 123.596 128.83 114.905 121.476ZM159.198 102.422C161.761 99.0787 163.042 94.9001 163.042 89.8859C163.042 84.8716 161.761 80.6931 159.198 77.3502C156.635 74.0074 152.623 72.3359 147.163 72.3359C141.703 72.3359 137.692 74.0074 135.129 77.3502C132.566 80.6931 131.285 84.8716 131.285 89.8859C131.285 94.9001 132.566 99.0787 135.129 102.422C137.692 105.764 141.703 107.436 147.163 107.436C152.623 107.436 156.635 105.764 159.198 102.422Z"/>
</mask>
<path d="M114.905 121.476C106.325 114.01 102.035 103.48 102.035 89.8859C102.035 76.2916 106.325 65.8174 114.905 58.4631C123.596 50.9975 134.349 47.2646 147.163 47.2646C159.978 47.2646 170.675 50.9975 179.255 58.4631C187.946 65.8174 192.292 76.2916 192.292 89.8859C192.292 103.48 187.946 114.01 179.255 121.476C170.675 128.83 159.978 132.507 147.163 132.507C134.349 132.507 123.596 128.83 114.905 121.476ZM159.198 102.422C161.761 99.0787 163.042 94.9001 163.042 89.8859C163.042 84.8716 161.761 80.6931 159.198 77.3502C156.635 74.0074 152.623 72.3359 147.163 72.3359C141.703 72.3359 137.692 74.0074 135.129 77.3502C132.566 80.6931 131.285 84.8716 131.285 89.8859C131.285 94.9001 132.566 99.0787 135.129 102.422C137.692 105.764 141.703 107.436 147.163 107.436C152.623 107.436 156.635 105.764 159.198 102.422Z" fill="white"/>
<path d="M114.905 121.476L114.249 122.23L114.259 122.239L114.905 121.476ZM114.905 58.4631L115.556 59.2224L115.557 59.2217L114.905 58.4631ZM179.255 58.4631L178.598 59.2176L178.609 59.2265L179.255 58.4631ZM179.255 121.476L179.906 122.235L179.906 122.234L179.255 121.476ZM115.561 120.721C107.243 113.483 103.035 103.253 103.035 89.8859H101.035C101.035 103.707 105.408 114.537 114.249 122.23L115.561 120.721ZM103.035 89.8859C103.035 76.5186 107.243 66.3481 115.556 59.2224L114.254 57.7039C105.408 65.2867 101.035 76.0647 101.035 89.8859H103.035ZM115.557 59.2217C124.045 51.9305 134.558 48.2646 147.163 48.2646V46.2646C134.14 46.2646 123.148 50.0645 114.253 57.7046L115.557 59.2217ZM147.163 48.2646C159.769 48.2646 170.224 51.9304 178.598 59.2175L179.911 57.7088C171.126 50.0645 160.186 46.2646 147.163 46.2646V48.2646ZM178.609 59.2265C187.032 66.3536 191.292 76.5229 191.292 89.8859H193.292C193.292 76.0604 188.861 65.2812 179.901 57.6998L178.609 59.2265ZM191.292 89.8859C191.292 103.248 187.032 113.477 178.603 120.717L179.906 122.234C188.861 114.543 193.292 103.712 193.292 89.8859H191.292ZM178.604 120.716C170.23 127.895 159.773 131.507 147.163 131.507V133.507C160.182 133.507 171.12 129.765 179.906 122.235L178.604 120.716ZM147.163 131.507C134.554 131.507 124.039 127.895 115.551 120.712L114.259 122.239C123.154 129.765 134.144 133.507 147.163 133.507V131.507ZM159.991 103.03C162.712 99.481 164.042 95.0768 164.042 89.8859H162.042C162.042 94.7235 160.809 98.6764 158.404 101.813L159.991 103.03ZM164.042 89.8859C164.042 84.6949 162.712 80.2907 159.991 76.7418L158.404 77.9586C160.809 81.0954 162.042 85.0483 162.042 89.8859H164.042ZM159.991 76.7418C157.185 73.082 152.834 71.3359 147.163 71.3359V73.3359C152.413 73.3359 156.084 74.9328 158.404 77.9586L159.991 76.7418ZM147.163 71.3359C141.493 71.3359 137.141 73.082 134.336 76.7418L135.923 77.9586C138.243 74.9328 141.914 73.3359 147.163 73.3359V71.3359ZM134.336 76.7418C131.615 80.2907 130.285 84.6949 130.285 89.8859H132.285C132.285 85.0483 133.518 81.0954 135.923 77.9586L134.336 76.7418ZM130.285 89.8859C130.285 95.0768 131.615 99.481 134.336 103.03L135.923 101.813C133.518 98.6764 132.285 94.7235 132.285 89.8859H130.285ZM134.336 103.03C137.141 106.69 141.493 108.436 147.163 108.436V106.436C141.914 106.436 138.243 104.839 135.923 101.813L134.336 103.03ZM147.163 108.436C152.834 108.436 157.185 106.69 159.991 103.03L158.404 101.813C156.084 104.839 152.413 106.436 147.163 106.436V108.436Z" fill="black" mask="url(#path-3-outside-2_2001_83)"/>
<mask id="path-5-outside-3_2001_83" maskUnits="userSpaceOnUse" x="199.426" y="46" width="94" height="88" fill="black">
<rect fill="white" x="199.426" y="46" width="94" height="88"/>
<path d="M214.188 121.476C205.608 114.01 201.318 103.48 201.318 89.8859C201.318 76.2916 205.608 65.8174 214.188 58.4631C222.88 50.9975 233.632 47.2646 246.447 47.2646C259.261 47.2646 269.958 50.9975 278.538 58.4631C287.229 65.8174 291.575 76.2916 291.575 89.8859C291.575 103.48 287.229 114.01 278.538 121.476C269.958 128.83 259.261 132.507 246.447 132.507C233.632 132.507 222.88 128.83 214.188 121.476ZM258.481 102.422C261.044 99.0787 262.325 94.9001 262.325 89.8859C262.325 84.8716 261.044 80.6931 258.481 77.3502C255.918 74.0074 251.907 72.3359 246.447 72.3359C240.987 72.3359 236.975 74.0074 234.412 77.3502C231.85 80.6931 230.568 84.8716 230.568 89.8859C230.568 94.9001 231.85 99.0787 234.412 102.422C236.975 105.764 240.987 107.436 246.447 107.436C251.907 107.436 255.918 105.764 258.481 102.422Z"/>
</mask>
<path d="M214.188 121.476C205.608 114.01 201.318 103.48 201.318 89.8859C201.318 76.2916 205.608 65.8174 214.188 58.4631C222.88 50.9975 233.632 47.2646 246.447 47.2646C259.261 47.2646 269.958 50.9975 278.538 58.4631C287.229 65.8174 291.575 76.2916 291.575 89.8859C291.575 103.48 287.229 114.01 278.538 121.476C269.958 128.83 259.261 132.507 246.447 132.507C233.632 132.507 222.88 128.83 214.188 121.476ZM258.481 102.422C261.044 99.0787 262.325 94.9001 262.325 89.8859C262.325 84.8716 261.044 80.6931 258.481 77.3502C255.918 74.0074 251.907 72.3359 246.447 72.3359C240.987 72.3359 236.975 74.0074 234.412 77.3502C231.85 80.6931 230.568 84.8716 230.568 89.8859C230.568 94.9001 231.85 99.0787 234.412 102.422C236.975 105.764 240.987 107.436 246.447 107.436C251.907 107.436 255.918 105.764 258.481 102.422Z" fill="white"/>
<path d="M214.188 121.476L213.532 122.23L213.542 122.239L214.188 121.476ZM214.188 58.4631L214.839 59.2224L214.84 59.2217L214.188 58.4631ZM278.538 58.4631L277.881 59.2176L277.892 59.2265L278.538 58.4631ZM278.538 121.476L279.189 122.235L279.19 122.234L278.538 121.476ZM214.845 120.721C206.526 113.483 202.318 103.253 202.318 89.8859H200.318C200.318 103.707 204.691 114.537 213.532 122.23L214.845 120.721ZM202.318 89.8859C202.318 76.5186 206.526 66.3481 214.839 59.2224L213.537 57.7039C204.691 65.2867 200.318 76.0647 200.318 89.8859H202.318ZM214.84 59.2217C223.328 51.9305 233.841 48.2646 246.447 48.2646V46.2646C233.424 46.2646 222.431 50.0645 213.537 57.7046L214.84 59.2217ZM246.447 48.2646C259.052 48.2646 269.507 51.9304 277.882 59.2175L279.194 57.7088C270.409 50.0645 259.47 46.2646 246.447 46.2646V48.2646ZM277.892 59.2265C286.315 66.3536 290.575 76.5229 290.575 89.8859H292.575C292.575 76.0604 288.144 65.2812 279.184 57.6998L277.892 59.2265ZM290.575 89.8859C290.575 103.248 286.315 113.477 277.886 120.717L279.19 122.234C288.144 114.543 292.575 103.712 292.575 89.8859H290.575ZM277.887 120.716C269.513 127.895 259.056 131.507 246.447 131.507V133.507C259.466 133.507 270.403 129.765 279.189 122.235L277.887 120.716ZM246.447 131.507C233.837 131.507 223.322 127.895 214.834 120.712L213.542 122.239C222.437 129.765 233.428 133.507 246.447 133.507V131.507ZM259.275 103.03C261.995 99.481 263.325 95.0768 263.325 89.8859H261.325C261.325 94.7235 260.092 98.6764 257.687 101.813L259.275 103.03ZM263.325 89.8859C263.325 84.6949 261.995 80.2907 259.275 76.7418L257.687 77.9586C260.092 81.0954 261.325 85.0483 261.325 89.8859H263.325ZM259.275 76.7418C256.469 73.082 252.117 71.3359 246.447 71.3359V73.3359C251.696 73.3359 255.367 74.9328 257.687 77.9586L259.275 76.7418ZM246.447 71.3359C240.776 71.3359 236.425 73.082 233.619 76.7418L235.206 77.9586C237.526 74.9328 241.197 73.3359 246.447 73.3359V71.3359ZM233.619 76.7418C230.898 80.2907 229.568 84.6949 229.568 89.8859H231.568C231.568 85.0483 232.801 81.0954 235.206 77.9586L233.619 76.7418ZM229.568 89.8859C229.568 95.0768 230.898 99.481 233.619 103.03L235.206 101.813C232.801 98.6764 231.568 94.7235 231.568 89.8859H229.568ZM233.619 103.03C236.425 106.69 240.776 108.436 246.447 108.436V106.436C241.197 106.436 237.526 104.839 235.206 101.813L233.619 103.03ZM246.447 108.436C252.117 108.436 256.469 106.69 259.275 103.03L257.687 101.813C255.367 104.839 251.696 106.436 246.447 106.436V108.436Z" fill="black" mask="url(#path-5-outside-3_2001_83)"/>
<mask id="path-7-outside-4_2001_83" maskUnits="userSpaceOnUse" x="298.715" y="12" width="95" height="122" fill="black">
<rect fill="white" x="298.715" y="12" width="95" height="122"/>
<path d="M363.337 13.0005H391.751V130H366.68V119.136C364.452 122.924 360.997 126.1 356.317 128.663C351.749 131.226 346.122 132.507 339.436 132.507C332.973 132.507 327.179 131.281 322.053 128.83C316.927 126.379 312.86 123.091 309.852 118.969C306.843 114.846 304.559 110.333 302.999 105.43C301.439 100.416 300.659 95.2344 300.659 89.8859C300.659 84.5373 301.439 79.4116 302.999 74.5088C304.559 69.4945 306.843 64.926 309.852 60.8031C312.86 56.6803 316.927 53.3932 322.053 50.9418C327.179 48.4903 332.973 47.2646 339.436 47.2646C349.576 47.2646 357.543 50.2732 363.337 56.2903V13.0005ZM363.337 80.6931C362 77.9074 359.883 75.5674 356.986 73.6731C354.089 71.6674 350.802 70.6645 347.125 70.6645C341.553 70.6645 337.263 72.5588 334.255 76.3474C331.357 80.1359 329.909 84.6488 329.909 89.8859C329.909 95.123 331.357 99.6358 334.255 103.424C337.263 107.213 341.553 109.107 347.125 109.107C350.802 109.107 354.089 108.16 356.986 106.266C359.883 104.26 362 101.864 363.337 99.0787V80.6931Z"/>
</mask>
<path d="M363.337 13.0005H391.751V130H366.68V119.136C364.452 122.924 360.997 126.1 356.317 128.663C351.749 131.226 346.122 132.507 339.436 132.507C332.973 132.507 327.179 131.281 322.053 128.83C316.927 126.379 312.86 123.091 309.852 118.969C306.843 114.846 304.559 110.333 302.999 105.43C301.439 100.416 300.659 95.2344 300.659 89.8859C300.659 84.5373 301.439 79.4116 302.999 74.5088C304.559 69.4945 306.843 64.926 309.852 60.8031C312.86 56.6803 316.927 53.3932 322.053 50.9418C327.179 48.4903 332.973 47.2646 339.436 47.2646C349.576 47.2646 357.543 50.2732 363.337 56.2903V13.0005ZM363.337 80.6931C362 77.9074 359.883 75.5674 356.986 73.6731C354.089 71.6674 350.802 70.6645 347.125 70.6645C341.553 70.6645 337.263 72.5588 334.255 76.3474C331.357 80.1359 329.909 84.6488 329.909 89.8859C329.909 95.123 331.357 99.6358 334.255 103.424C337.263 107.213 341.553 109.107 347.125 109.107C350.802 109.107 354.089 108.16 356.986 106.266C359.883 104.26 362 101.864 363.337 99.0787V80.6931Z" fill="white"/>
<path d="M363.337 13.0005V12.0005H362.337V13.0005H363.337ZM391.751 13.0005H392.751V12.0005H391.751V13.0005ZM391.751 130V131H392.751V130H391.751ZM366.68 130H365.68V131H366.68V130ZM366.68 119.136H367.68V115.463L365.818 118.629L366.68 119.136ZM356.317 128.663L355.837 127.786L355.828 127.791L356.317 128.663ZM322.053 128.83L321.622 129.732L322.053 128.83ZM309.852 118.969L309.044 119.558L309.852 118.969ZM302.999 105.43L302.044 105.727L302.046 105.733L302.999 105.43ZM302.999 74.5088L303.952 74.812L303.954 74.8059L302.999 74.5088ZM309.852 60.8031L309.044 60.2137L309.852 60.8031ZM322.053 50.9418L322.485 51.8439L322.053 50.9418ZM363.337 56.2903L362.617 56.9839L364.337 58.7704V56.2903H363.337ZM363.337 80.6931H364.337V80.4655L364.239 80.2603L363.337 80.6931ZM356.986 73.6731L356.417 74.4953L356.428 74.5028L356.439 74.5101L356.986 73.6731ZM334.255 76.3474L333.471 75.7255L333.466 75.7326L333.46 75.7399L334.255 76.3474ZM334.255 103.424L333.46 104.032L333.466 104.039L333.471 104.046L334.255 103.424ZM356.986 106.266L357.533 107.103L357.544 107.096L357.555 107.088L356.986 106.266ZM363.337 99.0787L364.239 99.5114L364.337 99.3063V99.0787H363.337ZM363.337 14.0005H391.751V12.0005H363.337V14.0005ZM390.751 13.0005V130H392.751V13.0005H390.751ZM391.751 129H366.68V131H391.751V129ZM367.68 130V119.136H365.68V130H367.68ZM365.818 118.629C363.699 122.232 360.393 125.291 355.837 127.786L356.798 129.54C361.602 126.909 365.204 123.617 367.542 119.643L365.818 118.629ZM355.828 127.791C351.445 130.25 345.997 131.507 339.436 131.507V133.507C346.247 133.507 352.053 132.202 356.807 129.535L355.828 127.791ZM339.436 131.507C333.102 131.507 327.458 130.307 322.485 127.928L321.622 129.732C326.9 132.256 332.844 133.507 339.436 133.507V131.507ZM322.485 127.928C317.491 125.54 313.56 122.354 310.66 118.379L309.044 119.558C312.161 123.829 316.364 127.218 321.622 129.732L322.485 127.928ZM310.66 118.379C307.715 114.344 305.48 109.928 303.952 105.127L302.046 105.733C303.638 110.738 305.971 115.348 309.044 119.558L310.66 118.379ZM303.954 105.133C302.424 100.217 301.659 95.1356 301.659 89.8859H299.659C299.659 95.3333 300.454 100.615 302.044 105.727L303.954 105.133ZM301.659 89.8859C301.659 84.6361 302.424 79.613 303.952 74.812L302.046 74.2056C300.454 79.2103 299.659 84.4385 299.659 89.8859H301.659ZM303.954 74.8059C305.482 69.8934 307.718 65.4242 310.66 61.3926L309.044 60.2137C305.969 64.4278 303.636 69.0957 302.044 74.2117L303.954 74.8059ZM310.66 61.3926C313.56 57.4182 317.491 54.2321 322.485 51.8439L321.622 50.0396C316.364 52.5543 312.161 55.9424 309.044 60.2137L310.66 61.3926ZM322.485 51.8439C327.458 49.4652 333.102 48.2646 339.436 48.2646V46.2646C332.844 46.2646 326.9 47.5154 321.622 50.0396L322.485 51.8439ZM339.436 48.2646C349.367 48.2646 357.05 51.2034 362.617 56.9839L364.058 55.5967C358.036 49.343 349.785 46.2646 339.436 46.2646V48.2646ZM364.337 56.2903V13.0005H362.337V56.2903H364.337ZM364.239 80.2603C362.813 77.2909 360.564 74.818 357.533 72.8361L356.439 74.5101C359.202 76.3168 361.187 78.5238 362.436 81.1258L364.239 80.2603ZM357.555 72.8509C354.483 70.7242 350.996 69.6645 347.125 69.6645V71.6645C350.608 71.6645 353.694 72.6106 356.417 74.4953L357.555 72.8509ZM347.125 69.6645C341.3 69.6645 336.7 71.66 333.471 75.7255L335.038 76.9692C337.826 73.4576 341.806 71.6645 347.125 71.6645V69.6645ZM333.46 75.7399C330.416 79.7202 328.909 84.452 328.909 89.8859H330.909C330.909 84.8455 332.298 80.5517 335.049 76.9548L333.46 75.7399ZM328.909 89.8859C328.909 95.3198 330.416 100.052 333.46 104.032L335.049 102.817C332.298 99.2201 330.909 94.9262 330.909 89.8859H328.909ZM333.471 104.046C336.7 108.112 341.3 110.107 347.125 110.107V108.107C341.806 108.107 337.826 106.314 335.038 102.803L333.471 104.046ZM347.125 110.107C350.983 110.107 354.463 109.11 357.533 107.103L356.439 105.429C353.715 107.21 350.62 108.107 347.125 108.107V110.107ZM357.555 107.088C360.575 104.998 362.817 102.474 364.239 99.5114L362.436 98.646C361.184 101.254 359.191 103.523 356.417 105.444L357.555 107.088ZM364.337 99.0787V80.6931H362.337V99.0787H364.337Z" fill="black" mask="url(#path-7-outside-4_2001_83)"/>
<mask id="path-9-outside-5_2001_83" maskUnits="userSpaceOnUse" x="9" y="134.984" width="118" height="106" fill="black">
<rect fill="white" x="9" y="134.984" width="118" height="106"/>
<path d="M99.3525 136.899H125.124V239.984H97.8798V185.202L75.7901 219.073H60.18L38.0903 185.055V239.984H10.8463V136.899H36.6176L67.985 185.202L99.3525 136.899Z"/>
</mask>
<path d="M99.3525 136.899H125.124V239.984H97.8798V185.202L75.7901 219.073H60.18L38.0903 185.055V239.984H10.8463V136.899H36.6176L67.985 185.202L99.3525 136.899Z" fill="white"/>
<path d="M99.3525 136.899V135.899H98.8095L98.5138 136.354L99.3525 136.899ZM125.124 136.899H126.124V135.899H125.124V136.899ZM125.124 239.984V240.984H126.124V239.984H125.124ZM97.8798 239.984H96.8798V240.984H97.8798V239.984ZM97.8798 185.202H98.8798V181.838L97.0422 184.656L97.8798 185.202ZM75.7901 219.073V220.073H76.3318L76.6277 219.619L75.7901 219.073ZM60.18 219.073L59.3413 219.617L59.637 220.073H60.18V219.073ZM38.0903 185.055L38.929 184.51L37.0903 181.678V185.055H38.0903ZM38.0903 239.984V240.984H39.0903V239.984H38.0903ZM10.8463 239.984H9.84626V240.984H10.8463V239.984ZM10.8463 136.899V135.899H9.84626V136.899H10.8463ZM36.6176 136.899L37.4563 136.354L37.1606 135.899H36.6176V136.899ZM67.985 185.202L67.1464 185.746L67.985 187.038L68.8237 185.746L67.985 185.202ZM99.3525 137.899H125.124V135.899H99.3525V137.899ZM124.124 136.899V239.984H126.124V136.899H124.124ZM125.124 238.984H97.8798V240.984H125.124V238.984ZM98.8798 239.984V185.202H96.8798V239.984H98.8798ZM97.0422 184.656L74.9525 218.526L76.6277 219.619L98.7174 185.748L97.0422 184.656ZM75.7901 218.073H60.18V220.073H75.7901V218.073ZM61.0187 218.528L38.929 184.51L37.2516 185.599L59.3413 219.617L61.0187 218.528ZM37.0903 185.055V239.984H39.0903V185.055H37.0903ZM38.0903 238.984H10.8463V240.984H38.0903V238.984ZM11.8463 239.984V136.899H9.84626V239.984H11.8463ZM10.8463 137.899H36.6176V135.899H10.8463V137.899ZM35.7789 137.444L67.1464 185.746L68.8237 184.657L37.4563 136.354L35.7789 137.444ZM68.8237 185.746L100.191 137.444L98.5138 136.354L67.1464 184.657L68.8237 185.746Z" fill="black" mask="url(#path-9-outside-5_2001_83)"/>
<mask id="path-11-outside-6_2001_83" maskUnits="userSpaceOnUse" x="136.162" y="167.872" width="82" height="78" fill="black">
<rect fill="white" x="136.162" y="167.872" width="82" height="78"/>
<path d="M148.758 234.362C141.198 227.784 137.419 218.506 137.419 206.528C137.419 194.551 141.198 185.322 148.758 178.843C156.416 172.265 165.89 168.976 177.18 168.976C188.47 168.976 197.895 172.265 205.455 178.843C213.113 185.322 216.942 194.551 216.942 206.528C216.942 218.506 213.113 227.784 205.455 234.362C197.895 240.841 188.47 244.081 177.18 244.081C165.89 244.081 156.416 240.841 148.758 234.362ZM187.783 217.573C190.041 214.628 191.17 210.946 191.17 206.528C191.17 202.111 190.041 198.429 187.783 195.484C185.525 192.538 181.991 191.066 177.18 191.066C172.369 191.066 168.835 192.538 166.577 195.484C164.319 198.429 163.19 202.111 163.19 206.528C163.19 210.946 164.319 214.628 166.577 217.573C168.835 220.519 172.369 221.991 177.18 221.991C181.991 221.991 185.525 220.519 187.783 217.573Z"/>
</mask>
<path d="M148.758 234.362C141.198 227.784 137.419 218.506 137.419 206.528C137.419 194.551 141.198 185.322 148.758 178.843C156.416 172.265 165.89 168.976 177.18 168.976C188.47 168.976 197.895 172.265 205.455 178.843C213.113 185.322 216.942 194.551 216.942 206.528C216.942 218.506 213.113 227.784 205.455 234.362C197.895 240.841 188.47 244.081 177.18 244.081C165.89 244.081 156.416 240.841 148.758 234.362ZM187.783 217.573C190.041 214.628 191.17 210.946 191.17 206.528C191.17 202.111 190.041 198.429 187.783 195.484C185.525 192.538 181.991 191.066 177.18 191.066C172.369 191.066 168.835 192.538 166.577 195.484C164.319 198.429 163.19 202.111 163.19 206.528C163.19 210.946 164.319 214.628 166.577 217.573C168.835 220.519 172.369 221.991 177.18 221.991C181.991 221.991 185.525 220.519 187.783 217.573Z" fill="white"/>
<path d="M148.758 234.362L148.101 235.116L148.112 235.125L148.758 234.362ZM148.758 178.843L149.409 179.602L149.41 179.601L148.758 178.843ZM205.455 178.843L204.798 179.597L204.809 179.606L205.455 178.843ZM205.455 234.362L206.106 235.121L206.107 235.12L205.455 234.362ZM149.414 233.607C142.116 227.256 138.419 218.279 138.419 206.528H136.419C136.419 218.733 140.281 228.311 148.102 235.116L149.414 233.607ZM138.419 206.528C138.419 194.778 142.116 185.853 149.409 179.602L148.107 178.083C140.281 184.792 136.419 194.324 136.419 206.528H138.419ZM149.41 179.601C156.864 173.198 166.099 169.976 177.18 169.976V167.976C165.681 167.976 155.967 171.332 148.106 178.084L149.41 179.601ZM177.18 169.976C188.262 169.976 197.444 173.198 204.799 179.597L206.111 178.088C198.347 171.332 188.679 167.976 177.18 167.976V169.976ZM204.809 179.606C212.198 185.859 215.942 194.782 215.942 206.528H217.942C217.942 194.32 214.027 184.786 206.101 178.079L204.809 179.606ZM215.942 206.528C215.942 218.274 212.198 227.251 204.803 233.603L206.107 235.12C214.027 228.316 217.942 218.738 217.942 206.528H215.942ZM204.804 233.602C197.45 239.906 188.266 243.081 177.18 243.081V245.081C188.675 245.081 198.341 241.777 206.106 235.121L204.804 233.602ZM177.18 243.081C166.095 243.081 156.858 239.906 149.404 233.598L148.112 235.125C155.973 241.777 165.685 245.081 177.18 245.081V243.081ZM188.577 218.182C190.993 215.03 192.17 211.123 192.17 206.528H190.17C190.17 210.77 189.09 214.226 186.99 216.965L188.577 218.182ZM192.17 206.528C192.17 201.934 190.993 198.027 188.577 194.875L186.99 196.092C189.09 198.831 190.17 202.287 190.17 206.528H192.17ZM188.577 194.875C186.076 191.613 182.201 190.066 177.18 190.066V192.066C181.78 192.066 184.974 193.464 186.99 196.092L188.577 194.875ZM177.18 190.066C172.159 190.066 168.284 191.613 165.783 194.875L167.371 196.092C169.386 193.464 172.58 192.066 177.18 192.066V190.066ZM165.783 194.875C163.367 198.027 162.19 201.934 162.19 206.528H164.19C164.19 202.287 165.271 198.831 167.371 196.092L165.783 194.875ZM162.19 206.528C162.19 211.123 163.367 215.03 165.783 218.182L167.371 216.965C165.271 214.226 164.19 210.77 164.19 206.528H162.19ZM165.783 218.182C168.284 221.444 172.159 222.991 177.18 222.991V220.991C172.58 220.991 169.386 219.593 167.371 216.965L165.783 218.182ZM177.18 222.991C182.201 222.991 186.076 221.444 188.577 218.182L186.99 216.965C184.974 219.593 181.78 220.991 177.18 220.991V222.991Z" fill="black" mask="url(#path-11-outside-6_2001_83)"/>
<mask id="path-13-outside-7_2001_83" maskUnits="userSpaceOnUse" x="223.639" y="167.872" width="82" height="78" fill="black">
<rect fill="white" x="223.639" y="167.872" width="82" height="78"/>
<path d="M236.235 234.362C228.675 227.784 224.896 218.506 224.896 206.528C224.896 194.551 228.675 185.322 236.235 178.843C243.893 172.265 253.367 168.976 264.657 168.976C275.947 168.976 285.372 172.265 292.932 178.843C300.59 185.322 304.419 194.551 304.419 206.528C304.419 218.506 300.59 227.784 292.932 234.362C285.372 240.841 275.947 244.081 264.657 244.081C253.367 244.081 243.893 240.841 236.235 234.362ZM275.26 217.573C277.518 214.628 278.647 210.946 278.647 206.528C278.647 202.111 277.518 198.429 275.26 195.484C273.002 192.538 269.468 191.066 264.657 191.066C259.846 191.066 256.312 192.538 254.054 195.484C251.796 198.429 250.667 202.111 250.667 206.528C250.667 210.946 251.796 214.628 254.054 217.573C256.312 220.519 259.846 221.991 264.657 221.991C269.468 221.991 273.002 220.519 275.26 217.573Z"/>
</mask>
<path d="M236.235 234.362C228.675 227.784 224.896 218.506 224.896 206.528C224.896 194.551 228.675 185.322 236.235 178.843C243.893 172.265 253.367 168.976 264.657 168.976C275.947 168.976 285.372 172.265 292.932 178.843C300.59 185.322 304.419 194.551 304.419 206.528C304.419 218.506 300.59 227.784 292.932 234.362C285.372 240.841 275.947 244.081 264.657 244.081C253.367 244.081 243.893 240.841 236.235 234.362ZM275.26 217.573C277.518 214.628 278.647 210.946 278.647 206.528C278.647 202.111 277.518 198.429 275.26 195.484C273.002 192.538 269.468 191.066 264.657 191.066C259.846 191.066 256.312 192.538 254.054 195.484C251.796 198.429 250.667 202.111 250.667 206.528C250.667 210.946 251.796 214.628 254.054 217.573C256.312 220.519 259.846 221.991 264.657 221.991C269.468 221.991 273.002 220.519 275.26 217.573Z" fill="white"/>
<path d="M236.235 234.362L235.578 235.116L235.589 235.125L236.235 234.362ZM236.235 178.843L236.886 179.602L236.887 179.601L236.235 178.843ZM292.932 178.843L292.275 179.597L292.286 179.606L292.932 178.843ZM292.932 234.362L293.583 235.121L293.584 235.12L292.932 234.362ZM236.891 233.607C229.593 227.256 225.896 218.279 225.896 206.528H223.896C223.896 218.733 227.758 228.311 235.579 235.116L236.891 233.607ZM225.896 206.528C225.896 194.778 229.593 185.853 236.886 179.602L235.584 178.083C227.758 184.792 223.896 194.324 223.896 206.528H225.896ZM236.887 179.601C244.341 173.198 253.576 169.976 264.657 169.976V167.976C253.158 167.976 243.444 171.332 235.583 178.084L236.887 179.601ZM264.657 169.976C275.739 169.976 284.921 173.198 292.276 179.597L293.588 178.088C285.824 171.332 276.156 167.976 264.657 167.976V169.976ZM292.286 179.606C299.675 185.859 303.419 194.782 303.419 206.528H305.419C305.419 194.32 301.504 184.786 293.578 178.079L292.286 179.606ZM303.419 206.528C303.419 218.274 299.675 227.251 292.28 233.603L293.584 235.12C301.504 228.316 305.419 218.738 305.419 206.528H303.419ZM292.281 233.602C284.927 239.906 275.743 243.081 264.657 243.081V245.081C276.152 245.081 285.818 241.777 293.583 235.121L292.281 233.602ZM264.657 243.081C253.572 243.081 244.335 239.906 236.881 233.598L235.589 235.125C243.45 241.777 253.162 245.081 264.657 245.081V243.081ZM276.054 218.182C278.47 215.03 279.647 211.123 279.647 206.528H277.647C277.647 210.77 276.567 214.226 274.467 216.965L276.054 218.182ZM279.647 206.528C279.647 201.934 278.47 198.027 276.054 194.875L274.467 196.092C276.567 198.831 277.647 202.287 277.647 206.528H279.647ZM276.054 194.875C273.553 191.613 269.678 190.066 264.657 190.066V192.066C269.257 192.066 272.451 193.464 274.467 196.092L276.054 194.875ZM264.657 190.066C259.636 190.066 255.761 191.613 253.26 194.875L254.848 196.092C256.863 193.464 260.057 192.066 264.657 192.066V190.066ZM253.26 194.875C250.844 198.027 249.667 201.934 249.667 206.528H251.667C251.667 202.287 252.748 198.831 254.848 196.092L253.26 194.875ZM249.667 206.528C249.667 211.123 250.844 215.03 253.26 218.182L254.848 216.965C252.748 214.226 251.667 210.77 251.667 206.528H249.667ZM253.26 218.182C255.761 221.444 259.636 222.991 264.657 222.991V220.991C260.057 220.991 256.863 219.593 254.848 216.965L253.26 218.182ZM264.657 222.991C269.678 222.991 273.553 221.444 276.054 218.182L274.467 216.965C272.451 219.593 269.257 220.991 264.657 220.991V222.991Z" fill="black" mask="url(#path-13-outside-7_2001_83)"/>
<mask id="path-15-outside-8_2001_83" maskUnits="userSpaceOnUse" x="311.117" y="136.872" width="83" height="109" fill="black">
<rect fill="white" x="311.117" y="136.872" width="83" height="109"/>
<path d="M367.441 138.787H392.476V241.872H370.387V232.3C368.423 235.638 365.38 238.436 361.256 240.694C357.231 242.952 352.273 244.081 346.382 244.081C340.688 244.081 335.583 243.001 331.067 240.841C326.551 238.681 322.967 235.785 320.316 232.153C317.666 228.52 315.653 224.544 314.279 220.224C312.904 215.806 312.217 211.241 312.217 206.528C312.217 201.816 312.904 197.3 314.279 192.98C315.653 188.562 317.666 184.537 320.316 180.904C322.967 177.272 326.551 174.376 331.067 172.216C335.583 170.056 340.688 168.976 346.382 168.976C355.316 168.976 362.336 171.627 367.441 176.928V138.787ZM367.441 198.429C366.263 195.974 364.398 193.913 361.845 192.244C359.293 190.477 356.396 189.593 353.157 189.593C348.248 189.593 344.468 191.262 341.817 194.6C339.265 197.938 337.988 201.914 337.988 206.528C337.988 211.143 339.265 215.119 341.817 218.457C344.468 221.795 348.248 223.464 353.157 223.464C356.396 223.464 359.293 222.629 361.845 220.96C364.398 219.193 366.263 217.082 367.441 214.628V198.429Z"/>
</mask>
<path d="M367.441 138.787H392.476V241.872H370.387V232.3C368.423 235.638 365.38 238.436 361.256 240.694C357.231 242.952 352.273 244.081 346.382 244.081C340.688 244.081 335.583 243.001 331.067 240.841C326.551 238.681 322.967 235.785 320.316 232.153C317.666 228.52 315.653 224.544 314.279 220.224C312.904 215.806 312.217 211.241 312.217 206.528C312.217 201.816 312.904 197.3 314.279 192.98C315.653 188.562 317.666 184.537 320.316 180.904C322.967 177.272 326.551 174.376 331.067 172.216C335.583 170.056 340.688 168.976 346.382 168.976C355.316 168.976 362.336 171.627 367.441 176.928V138.787ZM367.441 198.429C366.263 195.974 364.398 193.913 361.845 192.244C359.293 190.477 356.396 189.593 353.157 189.593C348.248 189.593 344.468 191.262 341.817 194.6C339.265 197.938 337.988 201.914 337.988 206.528C337.988 211.143 339.265 215.119 341.817 218.457C344.468 221.795 348.248 223.464 353.157 223.464C356.396 223.464 359.293 222.629 361.845 220.96C364.398 219.193 366.263 217.082 367.441 214.628V198.429Z" fill="white"/>
<path d="M367.441 138.787V137.787H366.441V138.787H367.441ZM392.476 138.787H393.476V137.787H392.476V138.787ZM392.476 241.872V242.872H393.476V241.872H392.476ZM370.387 241.872H369.387V242.872H370.387V241.872ZM370.387 232.3H371.387V228.628L369.525 231.793L370.387 232.3ZM361.256 240.694L360.776 239.817L360.767 239.822L361.256 240.694ZM331.067 240.841L330.635 241.743L331.067 240.841ZM320.316 232.153L319.509 232.742L320.316 232.153ZM314.279 220.224L313.324 220.521L313.326 220.527L314.279 220.224ZM314.279 192.98L315.232 193.283L315.233 193.277L314.279 192.98ZM320.316 180.904L319.509 180.315L320.316 180.904ZM331.067 172.216L331.498 173.118L331.067 172.216ZM367.441 176.928L366.721 177.622L368.441 179.408V176.928H367.441ZM367.441 198.429H368.441V198.201L368.343 197.996L367.441 198.429ZM361.845 192.244L361.276 193.066L361.287 193.074L361.298 193.081L361.845 192.244ZM341.817 194.6L341.034 193.978L341.028 193.985L341.023 193.993L341.817 194.6ZM341.817 218.457L341.023 219.064L341.028 219.072L341.034 219.079L341.817 218.457ZM361.845 220.96L362.392 221.797L362.403 221.79L362.414 221.783L361.845 220.96ZM367.441 214.628L368.343 215.061L368.441 214.856V214.628H367.441ZM367.441 139.787H392.476V137.787H367.441V139.787ZM391.476 138.787V241.872H393.476V138.787H391.476ZM392.476 240.872H370.387V242.872H392.476V240.872ZM371.387 241.872V232.3H369.387V241.872H371.387ZM369.525 231.793C367.67 234.945 364.775 237.627 360.776 239.817L361.736 241.571C365.984 239.245 369.176 236.331 371.248 232.807L369.525 231.793ZM360.767 239.822C356.927 241.976 352.148 243.081 346.382 243.081V245.081C352.398 245.081 357.535 243.928 361.745 241.566L360.767 239.822ZM346.382 243.081C340.817 243.081 335.862 242.026 331.498 239.939L330.635 241.743C335.304 243.976 340.559 245.081 346.382 245.081V243.081ZM331.498 239.939C327.114 237.842 323.667 235.047 321.124 231.563L319.509 232.742C322.268 236.523 325.987 239.52 330.635 241.743L331.498 239.939ZM321.124 231.563C318.537 228.018 316.574 224.139 315.231 219.921L313.326 220.527C314.733 224.949 316.794 229.022 319.509 232.742L321.124 231.563ZM315.233 219.927C313.889 215.607 313.217 211.142 313.217 206.528H311.217C311.217 211.34 311.919 216.005 313.324 220.521L315.233 219.927ZM313.217 206.528C313.217 201.915 313.889 197.501 315.231 193.283L313.326 192.677C311.919 197.099 311.217 201.717 311.217 206.528H313.217ZM315.233 193.277C316.576 188.961 318.54 185.035 321.124 181.494L319.509 180.315C316.791 184.039 314.73 188.163 313.324 192.683L315.233 193.277ZM321.124 181.494C323.667 178.01 327.114 175.215 331.498 173.118L330.635 171.314C325.987 173.537 322.268 176.534 319.509 180.315L321.124 181.494ZM331.498 173.118C335.862 171.031 340.817 169.976 346.382 169.976V167.976C340.559 167.976 335.304 169.081 330.635 171.314L331.498 173.118ZM346.382 169.976C355.107 169.976 361.843 172.557 366.721 177.622L368.162 176.235C362.829 170.697 355.526 167.976 346.382 167.976V169.976ZM368.441 176.928V138.787H366.441V176.928H368.441ZM368.343 197.996C367.076 195.358 365.079 193.163 362.392 191.407L361.298 193.081C363.717 194.662 365.45 196.591 366.54 198.862L368.343 197.996ZM362.414 191.422C359.687 189.533 356.59 188.593 353.157 188.593V190.593C356.202 190.593 358.898 191.42 361.276 193.066L362.414 191.422ZM353.157 188.593C347.995 188.593 343.905 190.363 341.034 193.978L342.6 195.222C345.031 192.161 348.501 190.593 353.157 190.593V188.593ZM341.023 193.993C338.324 197.522 336.988 201.717 336.988 206.528H338.988C338.988 202.111 340.205 198.354 342.611 195.207L341.023 193.993ZM336.988 206.528C336.988 211.34 338.324 215.535 341.023 219.064L342.611 217.849C340.205 214.703 338.988 210.946 338.988 206.528H336.988ZM341.034 219.079C343.905 222.694 347.995 224.464 353.157 224.464V222.464C348.501 222.464 345.031 220.896 342.6 217.835L341.034 219.079ZM353.157 224.464C356.578 224.464 359.667 223.58 362.392 221.797L361.298 220.123C358.918 221.679 356.215 222.464 353.157 222.464V224.464ZM362.414 221.783C365.089 219.931 367.079 217.693 368.343 215.061L366.54 214.195C365.447 216.472 363.706 218.456 361.276 220.138L362.414 221.783ZM368.441 214.628V198.429H366.441V214.628H368.441Z" fill="black" mask="url(#path-15-outside-8_2001_83)"/>
</svg>
