<svg width="1202" height="240" viewBox="0 0 1202 240" fill="none" xmlns="http://www.w3.org/2000/svg">
<mask id="mask0_2003_85" style="mask-type:alpha" maskUnits="userSpaceOnUse" x="0" y="0" width="1202" height="240">
<rect width="1202" height="240" fill="#D9D9D9"/>
</mask>
<g mask="url(#mask0_2003_85)">
<mask id="path-2-outside-1_2003_85" maskUnits="userSpaceOnUse" x="11" y="36.1162" width="544" height="173" fill="black">
<rect fill="white" x="11" y="36.1162" width="544" height="173"/>
<path d="M12.3254 37.6787H132.398V76.9104H56.3125V105.68H125.503V144.912H56.3125V204.116H12.3254V37.6787ZM159.517 191.99C147.311 181.37 141.209 166.39 141.209 147.052C141.209 127.713 147.311 112.813 159.517 102.352C171.881 91.7313 187.177 86.4211 205.406 86.4211C223.635 86.4211 238.852 91.7313 251.057 102.352C263.421 112.813 269.603 127.713 269.603 147.052C269.603 166.39 263.421 181.37 251.057 191.99C238.852 202.452 223.635 207.683 205.406 207.683C187.177 207.683 171.881 202.452 159.517 191.99ZM222.525 164.885C226.171 160.129 227.994 154.185 227.994 147.052C227.994 139.919 226.171 133.975 222.525 129.219C218.879 124.464 213.173 122.086 205.406 122.086C197.639 122.086 191.932 124.464 188.287 129.219C184.641 133.975 182.818 139.919 182.818 147.052C182.818 154.185 184.641 160.129 188.287 164.885C191.932 169.64 197.639 172.018 205.406 172.018C213.173 172.018 218.879 169.64 222.525 164.885ZM300.691 191.99C288.486 181.37 282.383 166.39 282.383 147.052C282.383 127.713 288.486 112.813 300.691 102.352C313.055 91.7313 328.352 86.4211 346.581 86.4211C364.809 86.4211 380.027 91.7313 392.232 102.352C404.596 112.813 410.778 127.713 410.778 147.052C410.778 166.39 404.596 181.37 392.232 191.99C380.027 202.452 364.809 207.683 346.581 207.683C328.352 207.683 313.055 202.452 300.691 191.99ZM363.7 164.885C367.346 160.129 369.169 154.185 369.169 147.052C369.169 139.919 367.346 133.975 363.7 129.219C360.054 124.464 354.348 122.086 346.581 122.086C338.813 122.086 333.107 124.464 329.461 129.219C325.816 133.975 323.993 139.919 323.993 147.052C323.993 154.185 325.816 160.129 329.461 164.885C333.107 169.64 338.813 172.018 346.581 172.018C354.348 172.018 360.054 169.64 363.7 164.885ZM512.721 37.6787H553.141V204.116H517.476V188.661C514.306 194.051 509.392 198.568 502.735 202.214C496.236 205.86 488.231 207.683 478.72 207.683C469.526 207.683 461.284 205.939 453.992 202.452C446.701 198.965 440.915 194.288 436.635 188.424C432.355 182.559 429.106 176.139 426.887 169.164C424.667 162.031 423.558 154.661 423.558 147.052C423.558 139.443 424.667 132.152 426.887 125.177C429.106 118.044 432.355 111.545 436.635 105.68C440.915 99.8154 446.701 95.1393 453.992 91.652C461.284 88.1648 469.526 86.4211 478.72 86.4211C493.145 86.4211 504.478 90.701 512.721 99.2606V37.6787ZM512.721 133.975C510.819 130.012 507.807 126.683 503.686 123.988C499.564 121.135 494.888 119.709 489.657 119.709C481.732 119.709 475.629 122.403 471.349 127.793C467.228 133.182 465.167 139.602 465.167 147.052C465.167 154.502 467.228 160.922 471.349 166.311C475.629 171.701 481.732 174.395 489.657 174.395C494.888 174.395 499.564 173.048 503.686 170.353C507.807 167.5 510.819 164.092 512.721 160.129V133.975Z"/>
</mask>
<path d="M12.3254 37.6787H132.398V76.9104H56.3125V105.68H125.503V144.912H56.3125V204.116H12.3254V37.6787ZM159.517 191.99C147.311 181.37 141.209 166.39 141.209 147.052C141.209 127.713 147.311 112.813 159.517 102.352C171.881 91.7313 187.177 86.4211 205.406 86.4211C223.635 86.4211 238.852 91.7313 251.057 102.352C263.421 112.813 269.603 127.713 269.603 147.052C269.603 166.39 263.421 181.37 251.057 191.99C238.852 202.452 223.635 207.683 205.406 207.683C187.177 207.683 171.881 202.452 159.517 191.99ZM222.525 164.885C226.171 160.129 227.994 154.185 227.994 147.052C227.994 139.919 226.171 133.975 222.525 129.219C218.879 124.464 213.173 122.086 205.406 122.086C197.639 122.086 191.932 124.464 188.287 129.219C184.641 133.975 182.818 139.919 182.818 147.052C182.818 154.185 184.641 160.129 188.287 164.885C191.932 169.64 197.639 172.018 205.406 172.018C213.173 172.018 218.879 169.64 222.525 164.885ZM300.691 191.99C288.486 181.37 282.383 166.39 282.383 147.052C282.383 127.713 288.486 112.813 300.691 102.352C313.055 91.7313 328.352 86.4211 346.581 86.4211C364.809 86.4211 380.027 91.7313 392.232 102.352C404.596 112.813 410.778 127.713 410.778 147.052C410.778 166.39 404.596 181.37 392.232 191.99C380.027 202.452 364.809 207.683 346.581 207.683C328.352 207.683 313.055 202.452 300.691 191.99ZM363.7 164.885C367.346 160.129 369.169 154.185 369.169 147.052C369.169 139.919 367.346 133.975 363.7 129.219C360.054 124.464 354.348 122.086 346.581 122.086C338.813 122.086 333.107 124.464 329.461 129.219C325.816 133.975 323.993 139.919 323.993 147.052C323.993 154.185 325.816 160.129 329.461 164.885C333.107 169.64 338.813 172.018 346.581 172.018C354.348 172.018 360.054 169.64 363.7 164.885ZM512.721 37.6787H553.141V204.116H517.476V188.661C514.306 194.051 509.392 198.568 502.735 202.214C496.236 205.86 488.231 207.683 478.72 207.683C469.526 207.683 461.284 205.939 453.992 202.452C446.701 198.965 440.915 194.288 436.635 188.424C432.355 182.559 429.106 176.139 426.887 169.164C424.667 162.031 423.558 154.661 423.558 147.052C423.558 139.443 424.667 132.152 426.887 125.177C429.106 118.044 432.355 111.545 436.635 105.68C440.915 99.8154 446.701 95.1393 453.992 91.652C461.284 88.1648 469.526 86.4211 478.72 86.4211C493.145 86.4211 504.478 90.701 512.721 99.2606V37.6787ZM512.721 133.975C510.819 130.012 507.807 126.683 503.686 123.988C499.564 121.135 494.888 119.709 489.657 119.709C481.732 119.709 475.629 122.403 471.349 127.793C467.228 133.182 465.167 139.602 465.167 147.052C465.167 154.502 467.228 160.922 471.349 166.311C475.629 171.701 481.732 174.395 489.657 174.395C494.888 174.395 499.564 173.048 503.686 170.353C507.807 167.5 510.819 164.092 512.721 160.129V133.975Z" fill="white"/>
<path d="M12.3254 37.6787V36.6626H11.3093V37.6787H12.3254ZM132.398 37.6787H133.414V36.6626H132.398V37.6787ZM132.398 76.9104V77.9265H133.414V76.9104H132.398ZM56.3125 76.9104V75.8943H55.2964V76.9104H56.3125ZM56.3125 105.68H55.2964V106.696H56.3125V105.68ZM125.503 105.68H126.519V104.664H125.503V105.68ZM125.503 144.912V145.928H126.519V144.912H125.503ZM56.3125 144.912V143.896H55.2964V144.912H56.3125ZM56.3125 204.116V205.132H57.3286V204.116H56.3125ZM12.3254 204.116H11.3093V205.132H12.3254V204.116ZM12.3254 38.6948H132.398V36.6626H12.3254V38.6948ZM131.382 37.6787V76.9104H133.414V37.6787H131.382ZM132.398 75.8943H56.3125V77.9265H132.398V75.8943ZM55.2964 76.9104V105.68H57.3286V76.9104H55.2964ZM56.3125 106.696H125.503V104.664H56.3125V106.696ZM124.487 105.68V144.912H126.519V105.68H124.487ZM125.503 143.896H56.3125V145.928H125.503V143.896ZM55.2964 144.912V204.116H57.3286V144.912H55.2964ZM56.3125 203.1H12.3254V205.132H56.3125V203.1ZM13.3415 204.116V37.6787H11.3093V204.116H13.3415ZM159.517 191.99L158.85 192.757L158.86 192.766L159.517 191.99ZM159.517 102.352L160.178 103.123L160.179 103.122L159.517 102.352ZM251.057 102.352L250.39 103.118L250.401 103.127L251.057 102.352ZM251.057 191.99L251.719 192.762L251.719 192.761L251.057 191.99ZM160.184 191.224C148.244 180.834 142.225 166.159 142.225 147.052H140.192C140.192 166.621 146.379 181.906 158.85 192.757L160.184 191.224ZM142.225 147.052C142.225 127.944 148.244 113.353 160.178 103.123L158.855 101.58C146.379 112.274 140.192 127.483 140.192 147.052H142.225ZM160.179 103.122C172.336 92.6793 187.389 87.4372 205.406 87.4372V85.405C186.965 85.405 171.425 90.7833 158.855 101.581L160.179 103.122ZM205.406 87.4372C223.423 87.4372 238.393 92.6793 250.39 103.118L251.724 101.585C239.31 90.7833 223.847 85.405 205.406 85.405V87.4372ZM250.401 103.127C262.492 113.358 268.587 127.948 268.587 147.052H270.619C270.619 127.479 264.35 112.269 251.714 101.576L250.401 103.127ZM268.587 147.052C268.587 166.155 262.492 180.828 250.395 191.219L251.719 192.761C264.35 181.911 270.619 166.626 270.619 147.052H268.587ZM250.396 191.219C238.399 201.501 223.427 206.667 205.406 206.667V208.699C223.843 208.699 239.304 203.402 251.719 192.762L250.396 191.219ZM205.406 206.667C187.385 206.667 172.33 201.501 160.173 191.214L158.86 192.766C171.431 203.402 186.969 208.699 205.406 208.699V206.667ZM223.332 165.503C227.138 160.538 229.01 154.365 229.01 147.052H226.978C226.978 154.005 225.204 159.72 221.719 164.266L223.332 165.503ZM229.01 147.052C229.01 139.739 227.138 133.566 223.332 128.601L221.719 129.838C225.204 134.384 226.978 140.098 226.978 147.052H229.01ZM223.332 128.601C219.439 123.524 213.387 121.07 205.406 121.07V123.102C212.959 123.102 218.32 125.404 221.719 129.838L223.332 128.601ZM205.406 121.07C197.425 121.07 191.373 123.524 187.48 128.601L189.093 129.838C192.492 125.404 197.853 123.102 205.406 123.102V121.07ZM187.48 128.601C183.674 133.566 181.802 139.739 181.802 147.052H183.834C183.834 140.098 185.608 134.384 189.093 129.838L187.48 128.601ZM181.802 147.052C181.802 154.365 183.674 160.538 187.48 165.503L189.093 164.266C185.608 159.72 183.834 154.005 183.834 147.052H181.802ZM187.48 165.503C191.373 170.58 197.425 173.034 205.406 173.034V171.001C197.853 171.001 192.492 168.7 189.093 164.266L187.48 165.503ZM205.406 173.034C213.387 173.034 219.439 170.58 223.332 165.503L221.719 164.266C218.32 168.7 212.959 171.001 205.406 171.001V173.034ZM300.691 191.99L300.024 192.757L300.035 192.766L300.691 191.99ZM300.691 102.352L301.353 103.123L301.353 103.122L300.691 102.352ZM392.232 102.352L391.565 103.118L391.576 103.127L392.232 102.352ZM392.232 191.99L392.893 192.762L392.894 192.761L392.232 191.99ZM301.358 191.224C289.418 180.834 283.399 166.159 283.399 147.052H281.367C281.367 166.621 287.554 181.906 300.024 192.757L301.358 191.224ZM283.399 147.052C283.399 127.944 289.418 113.353 301.353 103.123L300.03 101.58C287.554 112.274 281.367 127.483 281.367 147.052H283.399ZM301.353 103.122C313.511 92.6793 328.564 87.4372 346.581 87.4372V85.405C328.14 85.405 312.6 90.7833 300.029 101.581L301.353 103.122ZM346.581 87.4372C364.597 87.4372 379.568 92.6793 391.565 103.118L392.899 101.585C380.485 90.7833 365.021 85.405 346.581 85.405V87.4372ZM391.576 103.127C403.667 113.358 409.762 127.948 409.762 147.052H411.794C411.794 127.479 405.525 112.269 392.888 101.576L391.576 103.127ZM409.762 147.052C409.762 166.155 403.667 180.828 391.57 191.219L392.894 192.761C405.525 181.911 411.794 166.626 411.794 147.052H409.762ZM391.571 191.219C379.574 201.501 364.601 206.667 346.581 206.667V208.699C365.017 208.699 380.479 203.402 392.893 192.762L391.571 191.219ZM346.581 206.667C328.56 206.667 313.505 201.501 301.348 191.214L300.035 192.766C312.606 203.402 328.143 208.699 346.581 208.699V206.667ZM364.506 165.503C368.313 160.538 370.185 154.365 370.185 147.052H368.152C368.152 154.005 366.379 159.72 362.893 164.266L364.506 165.503ZM370.185 147.052C370.185 139.739 368.313 133.566 364.506 128.601L362.893 129.838C366.379 134.384 368.152 140.098 368.152 147.052H370.185ZM364.506 128.601C360.614 123.524 354.562 121.07 346.581 121.07V123.102C354.134 123.102 359.495 125.404 362.893 129.838L364.506 128.601ZM346.581 121.07C338.6 121.07 332.548 123.524 328.655 128.601L330.268 129.838C333.667 125.404 339.027 123.102 346.581 123.102V121.07ZM328.655 128.601C324.849 133.566 322.977 139.739 322.977 147.052H325.009C325.009 140.098 326.782 134.384 330.268 129.838L328.655 128.601ZM322.977 147.052C322.977 154.365 324.849 160.538 328.655 165.503L330.268 164.266C326.782 159.72 325.009 154.005 325.009 147.052H322.977ZM328.655 165.503C332.548 170.58 338.6 173.034 346.581 173.034V171.001C339.027 171.001 333.667 168.7 330.268 164.266L328.655 165.503ZM346.581 173.034C354.562 173.034 360.614 170.58 364.506 165.503L362.893 164.266C359.495 168.7 354.134 171.001 346.581 171.001V173.034ZM512.721 37.6787V36.6626H511.705V37.6787H512.721ZM553.141 37.6787H554.157V36.6626H553.141V37.6787ZM553.141 204.116V205.132H554.157V204.116H553.141ZM517.476 204.116H516.46V205.132H517.476V204.116ZM517.476 188.661H518.492V184.93L516.6 188.146L517.476 188.661ZM502.735 202.214L502.247 201.323L502.237 201.328L502.735 202.214ZM453.992 202.452L453.554 203.368L453.992 202.452ZM436.635 188.424L435.814 189.022L436.635 188.424ZM426.887 169.164L425.916 169.466L425.918 169.472L426.887 169.164ZM426.887 125.177L427.855 125.485L427.857 125.479L426.887 125.177ZM436.635 105.68L435.814 105.081L436.635 105.68ZM453.992 91.652L454.431 92.5687L453.992 91.652ZM512.721 99.2606L511.989 99.9654L513.737 101.781V99.2606H512.721ZM512.721 133.975H513.737V133.743L513.637 133.535L512.721 133.975ZM503.686 123.988L503.107 124.824L503.118 124.832L503.13 124.839L503.686 123.988ZM471.349 127.793L470.554 127.161L470.548 127.168L470.542 127.176L471.349 127.793ZM471.349 166.311L470.542 166.928L470.548 166.936L470.554 166.943L471.349 166.311ZM503.686 170.353L504.242 171.204L504.253 171.196L504.264 171.189L503.686 170.353ZM512.721 160.129L513.637 160.569L513.737 160.36V160.129H512.721ZM512.721 38.6948H553.141V36.6626H512.721V38.6948ZM552.125 37.6787V204.116H554.157V37.6787H552.125ZM553.141 203.1H517.476V205.132H553.141V203.1ZM518.492 204.116V188.661H516.46V204.116H518.492ZM516.6 188.146C513.541 193.347 508.778 197.746 502.247 201.323L503.223 203.105C510.007 199.39 515.071 194.755 518.352 189.176L516.6 188.146ZM502.237 201.328C495.927 204.868 488.104 206.667 478.72 206.667V208.699C488.358 208.699 496.544 206.852 503.232 203.1L502.237 201.328ZM478.72 206.667C469.657 206.667 461.568 204.949 454.431 201.535L453.554 203.368C461 206.93 469.396 208.699 478.72 208.699V206.667ZM454.431 201.535C447.273 198.112 441.626 193.539 437.456 187.825L435.814 189.022C440.204 195.038 446.128 199.817 453.554 203.368L454.431 201.535ZM437.456 187.825C433.241 182.049 430.041 175.727 427.855 168.856L425.918 169.472C428.17 176.55 431.469 183.068 435.814 189.022L437.456 187.825ZM427.857 168.862C425.669 161.829 424.574 154.56 424.574 147.052H422.542C422.542 154.761 423.666 162.234 425.916 169.466L427.857 168.862ZM424.574 147.052C424.574 139.544 425.669 132.356 427.855 125.485L425.918 124.869C423.666 131.947 422.542 139.343 422.542 147.052H424.574ZM427.857 125.479C430.044 118.45 433.244 112.051 437.456 106.279L435.814 105.081C431.467 111.039 428.168 117.639 425.916 124.875L427.857 125.479ZM437.456 106.279C441.626 100.565 447.273 95.9917 454.431 92.5687L453.554 90.7354C446.128 94.2869 440.204 99.0656 435.814 105.081L437.456 106.279ZM454.431 92.5687C461.568 89.1553 469.657 87.4372 478.72 87.4372V85.405C469.396 85.405 461 87.1742 453.554 90.7354L454.431 92.5687ZM478.72 87.4372C492.932 87.4372 503.978 91.6461 511.989 99.9654L513.453 98.5558C504.979 89.7558 493.357 85.405 478.72 85.405V87.4372ZM513.737 99.2606V37.6787H511.705V99.2606H513.737ZM513.637 133.535C511.645 129.386 508.499 125.922 504.242 123.138L503.13 124.839C507.115 127.445 509.992 130.638 511.805 134.414L513.637 133.535ZM504.264 123.153C499.965 120.177 495.085 118.693 489.657 118.693V120.725C494.691 120.725 499.164 122.094 503.107 124.824L504.264 123.153ZM489.657 118.693C481.475 118.693 475.057 121.49 470.554 127.161L472.145 128.425C476.201 123.317 481.989 120.725 489.657 120.725V118.693ZM470.542 127.176C466.272 132.76 464.151 139.402 464.151 147.052H466.183C466.183 139.802 468.184 133.605 472.156 128.41L470.542 127.176ZM464.151 147.052C464.151 154.702 466.272 161.344 470.542 166.928L472.156 165.694C468.184 160.499 466.183 154.302 466.183 147.052H464.151ZM470.554 166.943C475.057 172.614 481.475 175.411 489.657 175.411V173.379C481.989 173.379 476.201 170.787 472.145 165.679L470.554 166.943ZM489.657 175.411C495.073 175.411 499.945 174.013 504.242 171.204L503.13 169.503C499.184 172.082 494.704 173.379 489.657 173.379V175.411ZM504.264 171.189C508.51 168.249 511.648 164.712 513.637 160.569L511.805 159.689C509.989 163.472 507.104 166.751 503.107 169.518L504.264 171.189ZM513.737 160.129V133.975H511.705V160.129H513.737Z" fill="black" mask="url(#path-2-outside-1_2003_85)"/>
<mask id="path-4-outside-2_2003_85" maskUnits="userSpaceOnUse" x="573" y="36" width="619" height="173" fill="black">
<rect fill="white" x="573" y="36" width="619" height="173"/>
<path d="M717.456 37.5625H759.065V204H715.078V115.55L679.413 170.237H654.21L618.545 115.313V204H574.558V37.5625H616.167L666.811 115.55L717.456 37.5625ZM796.98 191.874C784.775 181.254 778.672 166.274 778.672 146.936C778.672 127.597 784.775 112.697 796.98 102.235C809.344 91.6151 824.64 86.3049 842.869 86.3049C861.098 86.3049 876.315 91.6151 888.521 102.235C900.885 112.697 907.067 127.597 907.067 146.936C907.067 166.274 900.885 181.254 888.521 191.874C876.315 202.336 861.098 207.567 842.869 207.567C824.64 207.567 809.344 202.336 796.98 191.874ZM859.988 164.768C863.634 160.013 865.457 154.069 865.457 146.936C865.457 139.803 863.634 133.858 859.988 129.103C856.343 124.348 850.636 121.97 842.869 121.97C835.102 121.97 829.396 124.348 825.75 129.103C822.104 133.858 820.281 139.803 820.281 146.936C820.281 154.069 822.104 160.013 825.75 164.768C829.396 169.524 835.102 171.901 842.869 171.901C850.636 171.901 856.343 169.524 859.988 164.768ZM938.155 191.874C925.949 181.254 919.847 166.274 919.847 146.936C919.847 127.597 925.949 112.697 938.155 102.235C950.519 91.6151 965.815 86.3049 984.044 86.3049C1002.27 86.3049 1017.49 91.6151 1029.7 102.235C1042.06 112.697 1048.24 127.597 1048.24 146.936C1048.24 166.274 1042.06 181.254 1029.7 191.874C1017.49 202.336 1002.27 207.567 984.044 207.567C965.815 207.567 950.519 202.336 938.155 191.874ZM1001.16 164.768C1004.81 160.013 1006.63 154.069 1006.63 146.936C1006.63 139.803 1004.81 133.858 1001.16 129.103C997.517 124.348 991.811 121.97 984.044 121.97C976.277 121.97 970.57 124.348 966.925 129.103C963.279 133.858 961.456 139.803 961.456 146.936C961.456 154.069 963.279 160.013 966.925 164.768C970.57 169.524 976.277 171.901 984.044 171.901C991.811 171.901 997.517 169.524 1001.16 164.768ZM1150.18 37.5625H1190.6V204H1154.94V188.545C1151.77 193.934 1146.86 198.452 1140.2 202.098C1133.7 205.744 1125.69 207.567 1116.18 207.567C1106.99 207.567 1098.75 205.823 1091.46 202.336C1084.16 198.848 1078.38 194.172 1074.1 188.307C1069.82 182.442 1066.57 176.023 1064.35 169.048C1062.13 161.915 1061.02 154.544 1061.02 146.936C1061.02 139.327 1062.13 132.036 1064.35 125.061C1066.57 117.928 1069.82 111.429 1074.1 105.564C1078.38 99.6992 1084.16 95.0231 1091.46 91.5358C1098.75 88.0486 1106.99 86.3049 1116.18 86.3049C1130.61 86.3049 1141.94 90.5847 1150.18 99.1444V37.5625ZM1150.18 133.858C1148.28 129.896 1145.27 126.567 1141.15 123.872C1137.03 121.019 1132.35 119.592 1127.12 119.592C1119.2 119.592 1113.09 122.287 1108.81 127.677C1104.69 133.066 1102.63 139.486 1102.63 146.936C1102.63 154.386 1104.69 160.806 1108.81 166.195C1113.09 171.584 1119.2 174.279 1127.12 174.279C1132.35 174.279 1137.03 172.932 1141.15 170.237C1145.27 167.384 1148.28 163.976 1150.18 160.013V133.858Z"/>
</mask>
<path d="M717.456 37.5625H759.065V204H715.078V115.55L679.413 170.237H654.21L618.545 115.313V204H574.558V37.5625H616.167L666.811 115.55L717.456 37.5625ZM796.98 191.874C784.775 181.254 778.672 166.274 778.672 146.936C778.672 127.597 784.775 112.697 796.98 102.235C809.344 91.6151 824.64 86.3049 842.869 86.3049C861.098 86.3049 876.315 91.6151 888.521 102.235C900.885 112.697 907.067 127.597 907.067 146.936C907.067 166.274 900.885 181.254 888.521 191.874C876.315 202.336 861.098 207.567 842.869 207.567C824.64 207.567 809.344 202.336 796.98 191.874ZM859.988 164.768C863.634 160.013 865.457 154.069 865.457 146.936C865.457 139.803 863.634 133.858 859.988 129.103C856.343 124.348 850.636 121.97 842.869 121.97C835.102 121.97 829.396 124.348 825.75 129.103C822.104 133.858 820.281 139.803 820.281 146.936C820.281 154.069 822.104 160.013 825.75 164.768C829.396 169.524 835.102 171.901 842.869 171.901C850.636 171.901 856.343 169.524 859.988 164.768ZM938.155 191.874C925.949 181.254 919.847 166.274 919.847 146.936C919.847 127.597 925.949 112.697 938.155 102.235C950.519 91.6151 965.815 86.3049 984.044 86.3049C1002.27 86.3049 1017.49 91.6151 1029.7 102.235C1042.06 112.697 1048.24 127.597 1048.24 146.936C1048.24 166.274 1042.06 181.254 1029.7 191.874C1017.49 202.336 1002.27 207.567 984.044 207.567C965.815 207.567 950.519 202.336 938.155 191.874ZM1001.16 164.768C1004.81 160.013 1006.63 154.069 1006.63 146.936C1006.63 139.803 1004.81 133.858 1001.16 129.103C997.517 124.348 991.811 121.97 984.044 121.97C976.277 121.97 970.57 124.348 966.925 129.103C963.279 133.858 961.456 139.803 961.456 146.936C961.456 154.069 963.279 160.013 966.925 164.768C970.57 169.524 976.277 171.901 984.044 171.901C991.811 171.901 997.517 169.524 1001.16 164.768ZM1150.18 37.5625H1190.6V204H1154.94V188.545C1151.77 193.934 1146.86 198.452 1140.2 202.098C1133.7 205.744 1125.69 207.567 1116.18 207.567C1106.99 207.567 1098.75 205.823 1091.46 202.336C1084.16 198.848 1078.38 194.172 1074.1 188.307C1069.82 182.442 1066.57 176.023 1064.35 169.048C1062.13 161.915 1061.02 154.544 1061.02 146.936C1061.02 139.327 1062.13 132.036 1064.35 125.061C1066.57 117.928 1069.82 111.429 1074.1 105.564C1078.38 99.6992 1084.16 95.0231 1091.46 91.5358C1098.75 88.0486 1106.99 86.3049 1116.18 86.3049C1130.61 86.3049 1141.94 90.5847 1150.18 99.1444V37.5625ZM1150.18 133.858C1148.28 129.896 1145.27 126.567 1141.15 123.872C1137.03 121.019 1132.35 119.592 1127.12 119.592C1119.2 119.592 1113.09 122.287 1108.81 127.677C1104.69 133.066 1102.63 139.486 1102.63 146.936C1102.63 154.386 1104.69 160.806 1108.81 166.195C1113.09 171.584 1119.2 174.279 1127.12 174.279C1132.35 174.279 1137.03 172.932 1141.15 170.237C1145.27 167.384 1148.28 163.976 1150.18 160.013V133.858Z" fill="white"/>
<path d="M717.456 37.5625V36.5464H716.904L716.604 37.0091L717.456 37.5625ZM759.065 37.5625H760.081V36.5464H759.065V37.5625ZM759.065 204V205.016H760.081V204H759.065ZM715.078 204H714.062V205.016H715.078V204ZM715.078 115.55H716.094V112.132L714.227 114.995L715.078 115.55ZM679.413 170.237V171.253H679.964L680.264 170.792L679.413 170.237ZM654.21 170.237L653.358 170.79L653.658 171.253H654.21V170.237ZM618.545 115.313L619.397 114.759L617.528 111.882V115.313H618.545ZM618.545 204V205.016H619.561V204H618.545ZM574.558 204H573.541V205.016H574.558V204ZM574.558 37.5625V36.5464H573.541V37.5625H574.558ZM616.167 37.5625L617.019 37.0091L616.719 36.5464H616.167V37.5625ZM666.811 115.55L665.959 116.104L666.811 117.416L667.664 116.104L666.811 115.55ZM717.456 38.5786H759.065V36.5464H717.456V38.5786ZM758.049 37.5625V204H760.081V37.5625H758.049ZM759.065 202.984H715.078V205.016H759.065V202.984ZM716.094 204V115.55H714.062V204H716.094ZM714.227 114.995L678.562 169.682L680.264 170.792L715.929 116.105L714.227 114.995ZM679.413 169.221H654.21V171.253H679.413V169.221ZM655.062 169.684L619.397 114.759L617.692 115.866L653.358 170.79L655.062 169.684ZM617.528 115.313V204H619.561V115.313H617.528ZM618.545 202.984H574.558V205.016H618.545V202.984ZM575.574 204V37.5625H573.541V204H575.574ZM574.558 38.5786H616.167V36.5464H574.558V38.5786ZM615.315 38.1159L665.959 116.104L667.664 114.997L617.019 37.0091L615.315 38.1159ZM667.664 116.104L718.308 38.1159L716.604 37.0091L665.959 114.997L667.664 116.104ZM796.98 191.874L796.313 192.64L796.324 192.65L796.98 191.874ZM796.98 102.235L797.641 103.007L797.642 103.006L796.98 102.235ZM888.521 102.235L887.854 103.002L887.864 103.011L888.521 102.235ZM888.521 191.874L889.182 192.645L889.183 192.645L888.521 191.874ZM797.647 191.107C785.707 180.718 779.688 166.043 779.688 146.936H777.656C777.656 166.505 783.842 181.789 796.313 192.64L797.647 191.107ZM779.688 146.936C779.688 127.828 785.707 113.236 797.641 103.007L796.319 101.464C783.842 112.158 777.656 127.367 777.656 146.936H779.688ZM797.642 103.006C809.8 92.5631 824.853 87.321 842.869 87.321V85.2888C824.428 85.2888 808.888 90.667 796.318 101.465L797.642 103.006ZM842.869 87.321C860.886 87.321 875.857 92.5631 887.854 103.002L889.188 101.469C876.774 90.6671 861.31 85.2888 842.869 85.2888V87.321ZM887.864 103.011C899.955 113.242 906.05 127.832 906.05 146.936H908.083C908.083 127.362 901.814 112.152 889.177 101.46L887.864 103.011ZM906.05 146.936C906.05 166.039 899.955 180.712 887.859 191.103L889.183 192.645C901.814 181.795 908.083 166.51 908.083 146.936H906.05ZM887.859 191.102C875.863 201.385 860.89 206.55 842.869 206.55V208.583C861.306 208.583 876.768 203.286 889.182 192.645L887.859 191.102ZM842.869 206.55C824.849 206.55 809.794 201.385 797.636 191.098L796.324 192.65C808.894 203.286 824.432 208.583 842.869 208.583V206.55ZM860.795 165.387C864.601 160.422 866.473 154.248 866.473 146.936H864.441C864.441 153.889 862.667 159.604 859.182 164.15L860.795 165.387ZM866.473 146.936C866.473 139.623 864.601 133.45 860.795 128.485L859.182 129.721C862.667 134.267 864.441 139.982 864.441 146.936H866.473ZM860.795 128.485C856.902 123.407 850.85 120.954 842.869 120.954V122.986C850.422 122.986 855.783 125.288 859.182 129.721L860.795 128.485ZM842.869 120.954C834.888 120.954 828.836 123.407 824.944 128.485L826.556 129.721C829.955 125.288 835.316 122.986 842.869 122.986V120.954ZM824.944 128.485C821.137 133.45 819.265 139.623 819.265 146.936H821.297C821.297 139.982 823.071 134.267 826.556 129.721L824.944 128.485ZM819.265 146.936C819.265 154.248 821.137 160.422 824.944 165.387L826.556 164.15C823.071 159.604 821.297 153.889 821.297 146.936H819.265ZM824.944 165.387C828.836 170.464 834.888 172.917 842.869 172.917V170.885C835.316 170.885 829.955 168.583 826.556 164.15L824.944 165.387ZM842.869 172.917C850.85 172.917 856.902 170.464 860.795 165.387L859.182 164.15C855.783 168.583 850.422 170.885 842.869 170.885V172.917ZM938.155 191.874L937.488 192.64L937.498 192.65L938.155 191.874ZM938.155 102.235L938.816 103.007L938.817 103.006L938.155 102.235ZM1029.7 102.235L1029.03 103.002L1029.04 103.011L1029.7 102.235ZM1029.7 191.874L1030.36 192.645L1030.36 192.645L1029.7 191.874ZM938.822 191.107C926.881 180.718 920.863 166.043 920.863 146.936H918.83C918.83 166.505 925.017 181.789 937.488 192.64L938.822 191.107ZM920.863 146.936C920.863 127.828 926.881 113.236 938.816 103.007L937.493 101.464C925.017 112.158 918.83 127.367 918.83 146.936H920.863ZM938.817 103.006C950.974 92.5631 966.027 87.321 984.044 87.321V85.2888C965.603 85.2888 950.063 90.667 937.493 101.465L938.817 103.006ZM984.044 87.321C1002.06 87.321 1017.03 92.5631 1029.03 103.002L1030.36 101.469C1017.95 90.6671 1002.48 85.2888 984.044 85.2888V87.321ZM1029.04 103.011C1041.13 113.242 1047.23 127.832 1047.23 146.936H1049.26C1049.26 127.362 1042.99 112.152 1030.35 101.46L1029.04 103.011ZM1047.23 146.936C1047.23 166.039 1041.13 180.712 1029.03 191.103L1030.36 192.645C1042.99 181.795 1049.26 166.51 1049.26 146.936H1047.23ZM1029.03 191.102C1017.04 201.385 1002.06 206.55 984.044 206.55V208.583C1002.48 208.583 1017.94 203.286 1030.36 192.645L1029.03 191.102ZM984.044 206.55C966.023 206.55 950.968 201.385 938.811 191.098L937.498 192.65C950.069 203.286 965.607 208.583 984.044 208.583V206.55ZM1001.97 165.387C1005.78 160.422 1007.65 154.248 1007.65 146.936H1005.62C1005.62 153.889 1003.84 159.604 1000.36 164.15L1001.97 165.387ZM1007.65 146.936C1007.65 139.623 1005.78 133.45 1001.97 128.485L1000.36 129.721C1003.84 134.267 1005.62 139.982 1005.62 146.936H1007.65ZM1001.97 128.485C998.077 123.407 992.025 120.954 984.044 120.954V122.986C991.597 122.986 996.958 125.288 1000.36 129.721L1001.97 128.485ZM984.044 120.954C976.063 120.954 970.011 123.407 966.118 128.485L967.731 129.721C971.13 125.288 976.491 122.986 984.044 122.986V120.954ZM966.118 128.485C962.312 133.45 960.44 139.623 960.44 146.936H962.472C962.472 139.982 964.246 134.267 967.731 129.721L966.118 128.485ZM960.44 146.936C960.44 154.248 962.312 160.422 966.118 165.387L967.731 164.15C964.246 159.604 962.472 153.889 962.472 146.936H960.44ZM966.118 165.387C970.011 170.464 976.063 172.917 984.044 172.917V170.885C976.491 170.885 971.13 168.583 967.731 164.15L966.118 165.387ZM984.044 172.917C992.025 172.917 998.077 170.464 1001.97 165.387L1000.36 164.15C996.958 168.583 991.597 170.885 984.044 170.885V172.917ZM1150.18 37.5625V36.5464H1149.17V37.5625H1150.18ZM1190.6 37.5625H1191.62V36.5464H1190.6V37.5625ZM1190.6 204V205.016H1191.62V204H1190.6ZM1154.94 204H1153.92V205.016H1154.94V204ZM1154.94 188.545H1155.96V184.814L1154.06 188.03L1154.94 188.545ZM1140.2 202.098L1139.71 201.207L1139.7 201.212L1140.2 202.098ZM1091.46 202.336L1091.02 203.252L1091.46 202.336ZM1074.1 188.307L1073.28 188.906L1074.1 188.307ZM1064.35 169.048L1063.38 169.35L1063.38 169.356L1064.35 169.048ZM1064.35 125.061L1065.32 125.369L1065.32 125.363L1064.35 125.061ZM1074.1 105.564L1073.28 104.965L1074.1 105.564ZM1091.46 91.5358L1091.89 92.4525L1091.46 91.5358ZM1150.18 99.1444L1149.45 99.8492L1151.2 101.664V99.1444H1150.18ZM1150.18 133.858H1151.2V133.627L1151.1 133.419L1150.18 133.858ZM1141.15 123.872L1140.57 124.708L1140.58 124.715L1140.59 124.723L1141.15 123.872ZM1108.81 127.677L1108.02 127.045L1108.01 127.052L1108.01 127.059L1108.81 127.677ZM1108.81 166.195L1108.01 166.812L1108.01 166.82L1108.02 166.827L1108.81 166.195ZM1141.15 170.237L1141.71 171.087L1141.72 171.08L1141.73 171.072L1141.15 170.237ZM1150.18 160.013L1151.1 160.453L1151.2 160.244V160.013H1150.18ZM1150.18 38.5786H1190.6V36.5464H1150.18V38.5786ZM1189.59 37.5625V204H1191.62V37.5625H1189.59ZM1190.6 202.984H1154.94V205.016H1190.6V202.984ZM1155.96 204V188.545H1153.92V204H1155.96ZM1154.06 188.03C1151 193.231 1146.24 197.63 1139.71 201.207L1140.69 202.989C1147.47 199.274 1152.53 194.638 1155.82 189.06L1154.06 188.03ZM1139.7 201.212C1133.39 204.752 1125.57 206.55 1116.18 206.55V208.583C1125.82 208.583 1134.01 206.735 1140.7 202.984L1139.7 201.212ZM1116.18 206.55C1107.12 206.55 1099.03 204.832 1091.89 201.419L1091.02 203.252C1098.46 206.813 1106.86 208.583 1116.18 208.583V206.55ZM1091.89 201.419C1084.74 197.996 1079.09 193.423 1074.92 187.708L1073.28 188.906C1077.67 194.922 1083.59 199.701 1091.02 203.252L1091.89 201.419ZM1074.92 187.708C1070.7 181.933 1067.5 175.611 1065.32 168.74L1063.38 169.356C1065.63 176.434 1068.93 182.952 1073.28 188.906L1074.92 187.708ZM1065.32 168.746C1063.13 161.713 1062.04 154.444 1062.04 146.936H1060.01C1060.01 154.645 1061.13 162.117 1063.38 169.35L1065.32 168.746ZM1062.04 146.936C1062.04 139.428 1063.13 132.24 1065.32 125.369L1063.38 124.753C1061.13 131.831 1060.01 139.227 1060.01 146.936H1062.04ZM1065.32 125.363C1067.51 118.333 1070.71 111.935 1074.92 106.163L1073.28 104.965C1068.93 110.923 1065.63 117.523 1063.38 124.759L1065.32 125.363ZM1074.92 106.163C1079.09 100.449 1084.74 95.8755 1091.89 92.4525L1091.02 90.6192C1083.59 94.1706 1077.67 98.9494 1073.28 104.965L1074.92 106.163ZM1091.89 92.4525C1099.03 89.0391 1107.12 87.321 1116.18 87.321V85.2888C1106.86 85.2888 1098.46 87.058 1091.02 90.6192L1091.89 92.4525ZM1116.18 87.321C1130.4 87.321 1141.44 91.5299 1149.45 99.8492L1150.92 98.4396C1142.44 89.6396 1130.82 85.2888 1116.18 85.2888V87.321ZM1151.2 99.1444V37.5625H1149.17V99.1444H1151.2ZM1151.1 133.419C1149.11 129.269 1145.96 125.805 1141.71 123.022L1140.59 124.723C1144.58 127.328 1147.46 130.522 1149.27 134.298L1151.1 133.419ZM1141.73 123.037C1137.43 120.061 1132.55 118.576 1127.12 118.576V120.609C1132.15 120.609 1136.63 121.977 1140.57 124.708L1141.73 123.037ZM1127.12 118.576C1118.94 118.576 1112.52 121.374 1108.02 127.045L1109.61 128.308C1113.66 123.2 1119.45 120.609 1127.12 120.609V118.576ZM1108.01 127.059C1103.74 132.643 1101.61 139.286 1101.61 146.936H1103.65C1103.65 139.686 1105.65 133.488 1109.62 128.294L1108.01 127.059ZM1101.61 146.936C1101.61 154.586 1103.74 161.228 1108.01 166.812L1109.62 165.578C1105.65 160.383 1103.65 154.186 1103.65 146.936H1101.61ZM1108.02 166.827C1112.52 172.498 1118.94 175.295 1127.12 175.295V173.263C1119.45 173.263 1113.66 170.671 1109.61 165.563L1108.02 166.827ZM1127.12 175.295C1132.54 175.295 1137.41 173.897 1141.71 171.087L1140.59 169.387C1136.65 171.966 1132.17 173.263 1127.12 173.263V175.295ZM1141.73 171.072C1145.97 168.133 1149.11 164.596 1151.1 160.453L1149.27 159.573C1147.45 163.356 1144.57 166.634 1140.57 169.402L1141.73 171.072ZM1151.2 160.013V133.858H1149.17V160.013H1151.2Z" fill="black" mask="url(#path-4-outside-2_2003_85)"/>
</g>
</svg>
